<svg id="logo" xmlns="http://www.w3.org/2000/svg" width="400" height="300" viewBox="0 0 400 300">
  <path fill="currentColor" stroke="currentColor" id="outer" data-name="outer" d="M189.017-531.229a149.9,149.9,0,0,0-54.6,15.308,147.075,147.075,0,0,0-40.982,29.937c-11.248,11.58-18.257,21.406-26.567,37.337-8.027,15.364-14.753,24.571-26.227,36.038-3.558,3.558-8.647,8.134-11.247,10.168-12.492,9.66-17.353,15.082-22.1,24.572-4.352,8.753-5.764,14.178-6.048,24.062C.9-344.432,1.7-339.065,4.52-331.836a45.679,45.679,0,0,0,25.436,25.307,85.69,85.69,0,0,0,11.531,3.107,97.892,97.892,0,0,1,25.719,8.642,100.468,100.468,0,0,1,27.98,19.431c13.454,12.989,24.532,20.9,39.512,28.238,10.683,5.2,17.466,7.8,27.639,10.45a149.71,149.71,0,0,0,108.921-12.2c12.944-6.778,23.571-14.629,35.554-26.152a100.274,100.274,0,0,1,28.32-19.77,97.872,97.872,0,0,1,25.719-8.642,85.656,85.656,0,0,0,11.531-3.107,45.673,45.673,0,0,0,25.436-25.307c2.826-7.23,3.618-12.6,3.279-21.973-.283-9.887-1.7-15.307-6.048-24.063-4.748-9.489-9.609-14.912-22.1-24.571-2.6-2.034-7.688-6.609-11.248-10.167-11.474-11.467-18.2-20.674-26.227-36.038-8.253-15.76-15.318-25.7-26.284-37.053a150.3,150.3,0,0,0-88.8-44.736A202.045,202.045,0,0,0,189.017-531.229Zm30.467,27.9a127.013,127.013,0,0,1,58.277,25.475,161.643,161.643,0,0,1,19.671,19.656,124.989,124.989,0,0,1,25.493,58.406c5.087,32.422-4.183,67.669-24.7,93.935a160.807,160.807,0,0,1-18.766,19.093c-23.683,19.825-56.3,30.275-86.935,27.9A123.706,123.706,0,0,1,97.729-314.89c-13.283-20.222-20.688-47.166-19.614-71.339a121.444,121.444,0,0,1,12.831-49.82,112.008,112.008,0,0,1,23.062-32.084,113.291,113.291,0,0,1,33.18-23.837c14.47-7.06,27.019-10.562,44.089-12.37,4.58-.454,22.78.168,28.207,1.014Z" transform="translate(-1.168 531.526)"/>
  <path fill="currentColor" stroke="currentColor" id="inner" data-name="inner" d="M59.865,0A59.865,59.865,0,1,1,0,59.865,59.865,59.865,0,0,1,59.865,0Z" transform="translate(140.277 88.89)"/>
</svg>
